<svg width="30" height="30" viewBox="0 0 30 30" fill="none" xmlns="http://www.w3.org/2000/svg">
<path d="M14.9999 29.7698C6.85585 29.7698 0.230103 23.1441 0.230103 15C0.230103 6.8559 6.85585 0.23015 14.9999 0.23015C23.144 0.23015 29.7698 6.8559 29.7698 15C29.7698 23.1441 23.144 29.7698 14.9999 29.7698ZM15.3282 20.3034C17.4544 20.3375 19.5156 20.7005 21.3894 21.353C21.8564 19.534 22.1292 17.4908 22.1545 15.3282H15.3282V20.3034ZM15.3282 20.9598V29.097C17.8486 28.8715 20.0322 26.0636 21.2158 21.9871C19.4007 21.3497 17.3976 20.9939 15.3282 20.9598ZM14.6717 20.9598C12.602 20.9939 10.5992 21.3497 8.78381 21.9874C9.96737 26.0636 12.151 28.8715 14.6717 29.097V20.9598ZM14.6717 20.3034V15.3282H7.84543C7.87071 17.4908 8.14346 19.534 8.61051 21.353C10.4843 20.7005 12.5455 20.3375 14.6717 20.3034ZM7.189 15.3282H0.894745C0.968923 18.5507 2.12622 21.5089 4.01873 23.8521C5.17078 22.9219 6.51976 22.1545 8.00462 21.5749C7.5054 19.686 7.21525 17.568 7.189 15.3282ZM7.189 14.6718C7.21493 12.432 7.5054 10.314 8.00462 8.42479C6.52009 7.84515 5.17078 7.07778 4.01906 6.14761C2.12622 8.49109 0.968923 11.4493 0.894745 14.6718H7.189ZM7.84543 14.6718H14.6717V9.69696C12.5455 9.66283 10.4843 9.29949 8.61051 8.64699C8.14346 10.466 7.87071 12.5091 7.84543 14.6718ZM14.6717 9.04053V0.903C12.151 1.12849 9.96737 3.9364 8.78381 8.01287C10.5992 8.65027 12.6023 9.00606 14.6717 9.04053ZM15.3282 9.04053C17.3976 9.00639 19.4007 8.6506 21.2158 8.0132C20.0322 3.9364 17.8489 1.12849 15.3282 0.903V9.04053ZM15.3282 9.69696V14.6718H22.1545C22.1292 12.5091 21.8564 10.466 21.3894 8.64699C19.5156 9.29949 17.4544 9.66283 15.3282 9.69696ZM22.8106 14.6718H29.1051C29.031 11.4493 27.8737 8.49109 25.9808 6.14761C24.8288 7.07778 23.4798 7.84548 21.9949 8.42479C22.4942 10.3143 22.7846 12.432 22.8106 14.6718ZM22.8106 15.3282C22.7846 17.568 22.4942 19.6856 21.9949 21.5749C23.4798 22.1545 24.8288 22.9219 25.9808 23.8521C27.8737 21.5086 29.0306 18.5503 29.1048 15.3282H22.8106ZM25.5564 24.3529C24.4746 23.4815 23.209 22.7604 21.8167 22.2103C20.9144 25.2457 19.4621 27.6213 17.716 28.8485C20.8088 28.243 23.5418 26.6242 25.5564 24.3529ZM12.2839 28.8485C10.5378 27.6213 9.08544 25.2457 8.18317 22.2106C6.79087 22.7607 5.52526 23.4818 4.44345 24.3532C6.45772 26.6242 9.1908 28.243 12.2839 28.8485ZM4.44312 5.64707C5.52493 6.51849 6.79021 7.23959 8.18284 7.78968C9.08512 4.75465 10.5375 2.379 12.2836 1.15179C9.1908 1.75702 6.45773 3.3758 4.44312 5.64707ZM17.716 1.15146C19.4621 2.37867 20.9144 4.75432 21.8167 7.78968C23.2094 7.23959 24.4746 6.51849 25.5564 5.64707C23.5418 3.3758 20.8091 1.75702 17.716 1.15146Z" fill="black"/>
</svg>
