<svg width="24" height="36" viewBox="0 0 24 36" fill="none" xmlns="http://www.w3.org/2000/svg">
<path d="M10.3561 21.39C8.7279 21.39 7.10006 20.7701 5.86058 19.5306C3.382 17.052 3.382 13.0184 5.86058 10.5399C8.33955 8.06129 12.3731 8.0609 14.8517 10.5399C17.3306 13.0184 17.3306 17.052 14.8517 19.5306C13.6122 20.7701 11.984 21.39 10.3561 21.39ZM10.3557 9.46817C8.92955 9.46817 7.50299 10.0109 6.41711 11.0968C4.24535 13.2685 4.24535 16.8019 6.41711 18.9736C8.58886 21.1454 12.1226 21.1454 14.2944 18.9736C16.4661 16.8019 16.4661 13.2685 14.2944 11.0968C13.2085 10.0113 11.7823 9.46817 10.3557 9.46817Z" fill="#331B3B"/>
<path d="M23.272 25.8646L18.0371 20.6294C17.559 20.1513 16.8335 20.0764 16.2707 20.3935L15.1155 19.2383C17.3195 16.7444 17.236 12.9247 14.8512 10.5402C12.373 8.06126 8.33906 8.06166 5.86009 10.5402C3.38152 13.0188 3.38152 17.0524 5.86009 19.5309C7.09958 20.77 8.72741 21.3904 10.3556 21.3904C11.8602 21.3904 13.3608 20.8539 14.5585 19.7956L15.7137 20.9508C15.3967 21.5136 15.4711 22.2387 15.9497 22.7173L21.1849 27.9521C21.4626 28.2302 21.8332 28.3834 22.2282 28.3834C22.6233 28.3834 22.9939 28.2302 23.2716 27.9521C23.5496 27.674 23.7029 27.3034 23.7029 26.9084C23.7029 26.5133 23.55 26.1423 23.272 25.8646ZM6.41741 18.974C4.24565 16.8023 4.24565 13.2689 6.41741 11.0972C7.50329 10.0113 8.92946 9.46853 10.356 9.46853C11.7826 9.46853 13.2088 10.0113 14.2947 11.0972C16.4664 13.2689 16.4664 16.8023 14.2947 18.974C12.1229 21.1458 8.58877 21.1454 6.41741 18.974ZM22.715 27.3952C22.4567 27.6536 22.0006 27.6536 21.7418 27.3952L16.5066 22.16C16.2384 21.8913 16.2384 21.455 16.5066 21.1863C16.6409 21.0524 16.817 20.9851 16.9934 20.9851C17.1695 20.9851 17.3459 21.052 17.4798 21.1863L22.7147 26.4216C22.8438 26.5507 22.9151 26.7236 22.9151 26.908C22.9151 27.0923 22.8442 27.2656 22.715 27.3952Z" fill="#331B3B"/>
<path d="M6.23429 17.2985C6.11495 17.2985 5.99718 17.2445 5.91998 17.1425C5.78883 16.9692 5.8227 16.7219 5.99639 16.5907L11.6802 12.289C11.7692 12.222 11.8819 12.1952 11.9914 12.2161C12.1005 12.237 12.1962 12.3028 12.2541 12.3977L14.0143 15.2827L14.6066 14.8573C14.7823 14.7297 15.0288 14.7707 15.1565 14.9475C15.2833 15.1244 15.2431 15.3702 15.0663 15.4974L14.1293 16.1705C14.0402 16.2343 13.928 16.2591 13.8217 16.2367C13.7141 16.215 13.6204 16.1492 13.5637 16.0559L11.809 13.1799L6.47218 17.2186C6.4005 17.2725 6.317 17.2985 6.23429 17.2985Z" fill="#331B3B"/>
<path d="M20.5795 21.863C20.7974 21.863 20.9734 21.6869 20.9734 21.4691V2.24038C20.9734 1.15725 20.0923 0.276184 19.0092 0.276184H2.26061C1.17749 0.276184 0.296814 1.15725 0.296814 2.24038V33.76C0.296814 34.8427 1.17788 35.7238 2.26061 35.7238H19.0088C20.0919 35.7238 20.973 34.8427 20.973 33.76V28.975C20.973 28.7572 20.797 28.5811 20.5792 28.5811C20.3613 28.5811 20.1853 28.7572 20.1853 28.975V29.9931H1.08454V18.3108L2.10464 19.9803C2.16254 20.0753 2.25825 20.141 2.36735 20.1619C2.39177 20.1666 2.41619 20.169 2.44061 20.169C2.52568 20.169 2.60918 20.1414 2.6785 20.0894L3.92704 19.145C4.10034 19.0134 4.13461 18.7665 4.00345 18.5932C3.8719 18.4199 3.62495 18.3856 3.45165 18.5167L2.5501 19.1989L1.08454 16.8003V4.79457H20.1857V10.8498L17.3479 12.8888C17.1711 13.0157 17.1305 13.2618 17.2577 13.4387C17.3345 13.5458 17.4554 13.6029 17.5779 13.6029C17.6575 13.6029 17.7378 13.5789 17.8072 13.5289L20.1857 11.8199V21.4695C20.1857 21.6865 20.3617 21.863 20.5795 21.863ZM20.1857 30.7808V33.7596C20.1857 34.4079 19.6579 34.9357 19.0092 34.9357H2.26061C1.61231 34.9357 1.08454 34.4079 1.08454 33.7596V30.7808H20.1857ZM1.08454 4.00685V2.24038C1.08454 1.59168 1.61231 1.06391 2.26061 1.06391H19.0088C19.6575 1.06391 20.1853 1.59168 20.1853 2.24038V4.00685H1.08454Z" fill="#331B3B"/>
<path d="M10.6349 34.278C9.86375 34.278 9.23633 33.6505 9.23633 32.8793C9.23633 32.1082 9.86375 31.4803 10.6349 31.4803C11.4061 31.4803 12.0335 32.1082 12.0335 32.8793C12.0335 33.6505 11.4061 34.278 10.6349 34.278ZM10.6349 32.2685C10.2982 32.2685 10.0241 32.5426 10.0241 32.8797C10.0241 33.2169 10.2982 33.4906 10.6349 33.4906C10.9717 33.4906 11.2458 33.2169 11.2458 32.8797C11.2458 32.5426 10.9721 32.2685 10.6349 32.2685Z" fill="#331B3B"/>
<path d="M13.032 2.90247H8.23786C8.02044 2.90247 7.84399 2.72602 7.84399 2.50861C7.84399 2.2912 8.02044 2.11475 8.23786 2.11475H13.032C13.2498 2.11475 13.4258 2.2912 13.4258 2.50861C13.4258 2.72602 13.2498 2.90247 13.032 2.90247Z" fill="#331B3B"/>
</svg>
