<svg width="22" height="21" viewBox="0 0 22 21" fill="none" xmlns="http://www.w3.org/2000/svg">
<g clip-path="url(#clip0_1_37)">
<path d="M11 2.0302C13.8918 2.0302 14.2312 2.0425 15.3742 2.09172C16.4312 2.13684 17.0027 2.30501 17.3851 2.44856C17.8922 2.63723 18.2531 2.85872 18.6312 3.21965C19.0093 3.58059 19.2457 3.92512 19.439 4.40911C19.5851 4.77415 19.7656 5.31965 19.8129 6.32864C19.8644 7.41965 19.8773 7.74368 19.8773 10.504C19.8773 13.2644 19.8644 13.5884 19.8129 14.6794C19.7656 15.6884 19.5894 16.2339 19.439 16.599C19.2414 17.0829 19.0093 17.4275 18.6312 17.7884C18.2531 18.1493 17.8922 18.3749 17.3851 18.5595C17.0027 18.6989 16.4312 18.8712 15.3742 18.9163C14.2312 18.9656 13.8918 18.9779 11 18.9779C8.10818 18.9779 7.76873 18.9656 6.62576 18.9163C5.56873 18.8712 4.99724 18.7031 4.61482 18.5595C4.10779 18.3708 3.74685 18.1493 3.36873 17.7884C2.9906 17.4275 2.75427 17.0829 2.56091 16.599C2.41482 16.2339 2.23435 15.6884 2.18709 14.6794C2.13552 13.5884 2.12263 13.2644 2.12263 10.504C2.12263 7.74368 2.13552 7.41965 2.18709 6.32864C2.23435 5.31965 2.41052 4.77415 2.56091 4.40911C2.75857 3.92512 2.9906 3.58059 3.36873 3.21965C3.74685 2.85872 4.10779 2.63313 4.61482 2.44856C4.99724 2.30911 5.56873 2.13684 6.62576 2.09172C7.76873 2.0384 8.10818 2.0302 11 2.0302ZM11 0.168091C8.06091 0.168091 7.69138 0.180396 6.53552 0.229614C5.38396 0.278833 4.59763 0.4552 3.91013 0.709497C3.19685 0.971997 2.59529 1.32883 1.99373 1.90305C1.39216 2.47727 1.02263 3.05559 0.743335 3.73235C0.476929 4.3886 0.292163 5.13918 0.240601 6.2425C0.189038 7.34172 0.176147 7.69446 0.176147 10.4999C0.176147 13.3054 0.189038 13.6581 0.240601 14.7614C0.292163 15.8607 0.476929 16.6113 0.743335 17.2716C1.01833 17.9525 1.39216 18.5267 1.99373 19.1009C2.59529 19.6751 3.20115 20.0279 3.91013 20.2945C4.59763 20.5488 5.38396 20.7251 6.53982 20.7743C7.69568 20.8236 8.06091 20.8359 11.0043 20.8359C13.9476 20.8359 14.3129 20.8236 15.4687 20.7743C16.6203 20.7251 17.4066 20.5488 18.0984 20.2945C18.8117 20.032 19.4133 19.6751 20.0148 19.1009C20.6164 18.5267 20.9859 17.9484 21.2652 17.2716C21.5316 16.6154 21.7164 15.8648 21.7679 14.7614C21.8195 13.6581 21.8324 13.3095 21.8324 10.4999C21.8324 7.69036 21.8195 7.34172 21.7679 6.2384C21.7164 5.13918 21.5316 4.3886 21.2652 3.72825C20.9902 3.04739 20.6164 2.47317 20.0148 1.89895C19.4133 1.32473 18.8074 0.971997 18.0984 0.705396C17.4109 0.451099 16.6246 0.274731 15.4687 0.225513C14.3086 0.180396 13.939 0.168091 11 0.168091Z" fill="#331B3B"/>
<path d="M11 5.1925C7.93201 5.1925 5.43982 7.56731 5.43982 10.4999C5.43982 13.4325 7.93201 15.8073 11 15.8073C14.0679 15.8073 16.5601 13.4284 16.5601 10.4999C16.5601 7.57141 14.0679 5.1925 11 5.1925ZM11 13.9452C9.00623 13.9452 7.3906 12.4031 7.3906 10.4999C7.3906 8.5968 9.00623 7.05461 11 7.05461C12.9937 7.05461 14.6094 8.5968 14.6094 10.4999C14.6094 12.4031 12.9937 13.9452 11 13.9452Z" fill="#331B3B"/>
<path d="M16.7793 6.22209C17.496 6.22209 18.0769 5.66752 18.0769 4.98342C18.0769 4.29932 17.496 3.74475 16.7793 3.74475C16.0626 3.74475 15.4816 4.29932 15.4816 4.98342C15.4816 5.66752 16.0626 6.22209 16.7793 6.22209Z" fill="#331B3B"/>
</g>
<defs>
<clipPath id="clip0_1_37">
<rect width="22" height="21" fill="white"/>
</clipPath>
</defs>
</svg>
