<svg width="17" height="16" viewBox="0 0 17 16" fill="none" xmlns="http://www.w3.org/2000/svg">
<g clip-path="url(#clip0_1_33)">
<path fill-rule="evenodd" clip-rule="evenodd" d="M17 16H13.507V10.4007C13.507 8.86547 12.8872 8.00755 11.5962 8.00755C10.1917 8.00755 9.45791 8.90034 9.45791 10.4007V16H6.09167V5.33334H9.45791V6.77013C9.45791 6.77013 10.47 5.00745 12.8751 5.00745C15.279 5.00745 17 6.38907 17 9.24653V16ZM2.07574 3.93662C0.929129 3.93662 0 3.05528 0 1.96831C0 0.881339 0.929129 0 2.07574 0C3.22236 0 4.15094 0.881339 4.15094 1.96831C4.15094 3.05528 3.22236 3.93662 2.07574 3.93662ZM0.337568 16H3.84769V5.33334H0.337568V16Z" fill="#331B3B"/>
</g>
<defs>
<clipPath id="clip0_1_33">
<rect width="17" height="16" fill="white"/>
</clipPath>
</defs>
</svg>
