<svg width="657" height="594" viewBox="0 0 657 594" fill="none" xmlns="http://www.w3.org/2000/svg">
<path d="M237.763 58.5855C277.774 126.006 379.862 265.372 468.13 283.475C565.817 285.932 732.108 333.513 615.774 504.173C531.546 627.736 163.688 666.901 19.369 325.802C-8.50957 238.728 -24.5358 57.3816 124.926 4.25905C127.168 3.46228 129.447 3.09446 131.764 2.64103L135.641 1.72346C139.55 1.50392 144.09 0.504433 149.049 0.758602C178.722 2.27938 223.408 14.1386 237.763 58.5855Z" fill="#FDC021"/>
<path d="M135.641 1.72347C131.979 2.81885 128.408 3.02174 124.926 4.25905M135.641 1.72347L124.926 4.25905M135.641 1.72347C139.55 1.50392 144.09 0.504433 149.049 0.758611C178.722 2.27938 223.408 14.1386 237.763 58.5855C277.774 126.006 379.862 265.372 468.13 283.475C565.817 285.932 732.108 333.513 615.774 504.173C531.546 627.736 163.688 666.901 19.369 325.802C-8.50957 238.728 -24.5358 57.3816 124.926 4.25905" stroke="#FDC221"/>
</svg>
